<svg width="100" height="100" xmlns="http://www.w3.org/2000/svg">
  <!-- 8-bit pixel art fries -->
  <!-- Red container -->
  <rect x="20" y="50" width="60" height="40" fill="#FF3333"/>
  <rect x="18" y="48" width="2" height="2" fill="#CC0000"/>
  <rect x="80" y="48" width="2" height="2" fill="#CC0000"/>
  <rect x="18" y="90" width="2" height="2" fill="#CC0000"/>
  <rect x="80" y="90" width="2" height="2" fill="#CC0000"/>
  
  <!-- Yellow fries -->
  <rect x="25" y="20" width="6" height="35" fill="#FFD700"/>
  <rect x="33" y="15" width="6" height="40" fill="#FFD700"/>
  <rect x="41" y="10" width="6" height="45" fill="#FFD700"/>
  <rect x="49" y="18" width="6" height="37" fill="#FFD700"/>
  <rect x="57" y="12" width="6" height="43" fill="#FFD700"/>
  <rect x="65" y="22" width="6" height="33" fill="#FFD700"/>
  
  <!-- Shadows on fries -->
  <rect x="28" y="20" width="3" height="35" fill="#FFA500" opacity="0.5"/>
  <rect x="36" y="15" width="3" height="40" fill="#FFA500" opacity="0.5"/>
  <rect x="44" y="10" width="3" height="45" fill="#FFA500" opacity="0.5"/>
  <rect x="52" y="18" width="3" height="37" fill="#FFA500" opacity="0.5"/>
  <rect x="60" y="12" width="3" height="43" fill="#FFA500" opacity="0.5"/>
  <rect x="68" y="22" width="3" height="33" fill="#FFA500" opacity="0.5"/>
  
  <!-- Container shadow -->
  <rect x="22" y="52" width="56" height="36" fill="#CC0000" opacity="0.3"/>
</svg>
